<?xml version="1.0" standalone="no"?><svg xmlns="http://www.w3.org/2000/svg" style="isolation:isolate" viewBox="0 0 175.927 92.187" width="175.927" height="92.187"><defs><clipPath id="aoa"><path d="M0 0h175.927v92.187H0z"/></clipPath></defs><g clip-path="url(#aoa)"><path d="M74.182 63.778h1.492c1.791 0 2.09-.896 2.09-2.587 0-1.692-.299-2.587-2.189-2.587h-1.294v5.174h-.099zm-2.587-7.463h4.179c3.085 0 4.577 1.691 4.577 4.975 0 1.891-.597 3.383-2.189 4.179l2.786 7.662h-2.687l-2.388-7.164h-1.492v7.164h-2.587V56.315h-.199zM82.441 56.315h7.662v2.289h-5.175v4.875h4.478v2.289h-4.478v4.975h5.175v2.388h-7.662V56.315zM95.675 61.191l-1.294 6.07h2.588l-1.294-6.07zm-1.095-4.876h2.19l3.98 16.816h-2.587l-.796-3.582h-3.483l-.796 3.582h-2.587l4.079-16.816zM102.043 56.315h2.588v14.428h5.074v2.388h-7.662V56.315zM113.984 70.843h1.194c1.493 0 1.99-.697 1.99-2.09v-8.06c0-1.293-.497-2.089-1.99-2.089h-1.194v12.239zm-2.587-14.528h3.781c2.886 0 4.577 1.592 4.577 4.378v7.861c0 3.085-1.691 4.577-4.776 4.577h-3.582V56.315zM124.631 69.151c0 1.194.796 1.692 1.791 1.692.896 0 1.791-.498 1.791-1.692v-8.856c0-1.194-.796-1.691-1.791-1.691-.895 0-1.791.497-1.791 1.691v8.856zm-2.587-8.856c0-2.786 2.189-4.08 4.279-4.08 2.089 0 4.279 1.393 4.279 4.08v8.856c0 2.687-2.19 4.08-4.279 4.08-2.09 0-4.279-1.393-4.279-4.08v-8.856zM132.99 56.315h2.587v14.428h5.075v2.388h-7.662V56.315zM142.343 56.315h2.488l3.284 8.856 3.283-8.856h2.588v16.816h-2.588V62.882h-.099l-2.587 7.264h-1.294l-2.488-7.264v10.249h-2.587V56.315zM156.374 56.315h7.662v2.289h-5.075v4.875h4.478v2.289h-4.478v4.975h5.075v2.388h-7.662V56.315zM165.628 56.315h2.487l3.881 10.149h.1V56.315h2.587v16.816h-2.488l-3.98-10.149v10.149h-2.587V56.315z" fill="#303039"/><path d="M34.379 20.592h.398s.199 0 .597.1c1.891.298 7.861 1.691 7.364 9.95v.1H62.739v-1.095c0-2.189-.299-7.164-2.787-12.438 0-.099 0-.099-.099-.199l-.597-1.194c-1.393-2.687-3.483-5.373-6.269-7.762-2.488-1.99-5.572-3.781-9.453-5.074-2.289-.697-4.876-1.294-7.662-1.592h-1.493v19.204z" fill="#4DA734"/><path d="M33.882 57.011H7.811l26.071 31.842V57.011z" fill="#4A9135"/><path d="M33.882 57.011v31.842h28.459L33.882 57.011z" fill="#268B32"/><g fill="#F39200" stroke-width=".498" stroke="#F39200" stroke-miterlimit="10"><path d="M76.769 87.659v-3.482c0-1.493-.995-2.09-2.09-2.09-.895 0-1.791.398-2.189 1.194l.398.299a1.955 1.955 0 0 1 1.692-.996c.895 0 1.691.597 1.691 1.593v.895a4.123 4.123 0 0 0-1.592-.298c-1.293 0-2.587.696-2.587 2.089 0 1.194.896 1.791 1.891 1.791.895 0 1.791-.398 2.288-.995v.199c0 .498.199.697.697.697h.298v-.498h-.199c-.199-.199-.298-.298-.298-.398zm-.498-.895c-.497.796-1.492 1.194-2.189 1.194-.796 0-1.393-.498-1.393-1.393 0-.995.995-1.592 2.09-1.592.597 0 1.194.199 1.492.398v1.393zM85.028 84.575h2.388c-.099 1.99-1.294 3.383-2.786 3.383-1.791 0-2.886-1.791-2.886-3.98 0-2.19 1.194-3.981 2.985-3.981 1.194 0 2.09.796 2.588 1.99l.497-.199c-.497-1.393-1.592-2.288-2.985-2.288-2.189 0-3.483 1.99-3.483 4.478 0 2.487 1.294 4.477 3.483 4.477 1.89 0 3.284-1.791 3.284-4.179v-.099h-2.986v.398h-.099zM90.401 80.992c0-.597.398-.995.796-.995.199 0 .398.1.597.299v-.498c-.199-.099-.497-.199-.696-.199-.697 0-1.294.597-1.294 1.592v1.095h-.995v.497h.995v5.672h.498v-5.672h2.686v5.672h.498v-6.169h-3.184v-1.294h.099zM101.844 84.575h2.389c-.1 1.99-1.294 3.383-2.787 3.383-1.791 0-2.885-1.791-2.885-3.98 0-2.19 1.194-3.981 2.985-3.981 1.194 0 2.089.796 2.587 1.99l.498-.199c-.498-1.393-1.593-2.288-2.986-2.288-2.189 0-3.482 1.99-3.482 4.478 0 2.487 1.293 4.477 3.482 4.477 1.891 0 3.284-1.791 3.284-4.179v-.099h-2.985v.398h-.1zM106.72 83.082v-.896h-.497v6.17h.497v-3.781c0-1.493.896-2.09 1.791-2.09.299 0 .498.099.597.099l.199-.497c-.199-.1-.497-.1-.796-.1-.696 0-1.393.398-1.791 1.095zM112.293 81.987c-1.593 0-2.588 1.294-2.588 3.185 0 1.89.896 3.283 2.588 3.283 1.592 0 2.587-1.293 2.587-3.283 0-1.891-.995-3.185-2.587-3.185zm0 6.07c-1.294 0-1.991-1.194-1.991-2.786s.697-2.786 1.991-2.786c1.293 0 1.99 1.194 1.99 2.786s-.697 2.786-1.99 2.786zM120.054 85.968c0 1.492-.995 2.089-1.791 2.089-.995 0-1.592-.796-1.592-1.99v-3.881h-.498v3.782c0 1.393.597 2.587 1.99 2.587.796 0 1.493-.299 1.891-1.095v.896h.498v-6.17h-.498v3.782zM124.731 81.987c-.896 0-1.493.398-1.891 1.095v-.995h-.497v8.657h.497v-3.582c.498.796 1.095 1.293 1.99 1.293 1.294 0 2.189-1.492 2.189-3.184 0-1.691-.995-3.284-2.288-3.284zm-.1 6.07c-.895 0-1.691-.895-1.89-1.99v-1.89c.298-.996.995-1.692 1.89-1.692 1.095 0 1.791 1.294 1.791 2.786 0 1.493-.696 2.786-1.791 2.786zM133.487 82.485c.697 0 1.194.398 1.592.995l.398-.299c-.497-.696-1.194-1.094-2.089-1.094-1.592 0-2.587 1.293-2.587 3.284 0 1.89.995 3.184 2.587 3.184.895 0 1.592-.398 1.99-1.194l-.398-.299c-.398.597-.896.995-1.592.995-1.194 0-1.99-1.094-1.99-2.786.099-1.691.895-2.786 2.089-2.786zM139.06 81.987c-1.592 0-2.588 1.294-2.588 3.185 0 1.89.896 3.283 2.588 3.283 1.592 0 2.587-1.293 2.587-3.283 0-1.891-.896-3.185-2.587-3.185zm0 6.07c-1.294 0-1.99-1.194-1.99-2.786s.696-2.786 1.99-2.786c1.293 0 1.99 1.194 1.99 2.786s-.697 2.786-1.99 2.786zM148.811 81.987c-.796 0-1.492.398-1.89 1.393-.299-.796-.796-1.393-1.692-1.393-.697 0-1.294.299-1.692.995v-.796h-.497v6.17h.497v-3.781c0-1.493.896-2.09 1.692-2.09.896 0 1.393.796 1.393 1.99v3.881h.498v-3.881c0-1.095.597-1.99 1.691-1.99.896 0 1.393.796 1.393 1.99v3.881h.498v-3.781c0-1.394-.597-2.588-1.891-2.588zM154.782 81.987c-.896 0-1.493.398-1.891 1.095v-.995h-.498v8.657h.498v-3.582c.497.796 1.095 1.293 1.99 1.293 1.294 0 2.189-1.492 2.189-3.184 0-1.691-.895-3.284-2.288-3.284zm0 6.07c-.896 0-1.692-.895-1.891-1.99v-1.89c.298-.996.995-1.692 1.891-1.692 1.094 0 1.791 1.294 1.791 2.786 0 1.493-.697 2.786-1.791 2.786zM162.643 87.659v-3.482c0-1.493-.996-2.09-2.09-2.09-.896 0-1.791.398-2.189 1.194l.398.299a1.954 1.954 0 0 1 1.691-.996c.896 0 1.692.597 1.692 1.593v.895a4.126 4.126 0 0 0-1.592-.298c-1.294 0-2.587.696-2.587 2.089 0 1.194.895 1.791 1.89 1.791.896 0 1.791-.398 2.289-.995v.199c0 .498.199.697.697.697h.298v-.498h-.199c-.199-.199-.298-.298-.298-.398zm-.498-.895c-.498.796-1.493 1.194-2.189 1.194-.796 0-1.393-.498-1.393-1.393 0-.995.995-1.592 2.089-1.592.597 0 1.195.199 1.493.398v1.393zM166.822 81.987c-.796 0-1.493.299-1.891 1.095v-.896h-.497v6.17h.497v-3.781c0-1.493.995-2.09 1.791-2.09.995 0 1.592.796 1.592 1.99v3.881h.498v-3.781c0-1.394-.597-2.588-1.99-2.588zM174.086 82.186l-1.99 5.573-1.891-5.573h-.498l2.19 6.17-.597 1.592c-.1.398-.398.597-.697.597-.099 0-.298 0-.398-.1v.398c.1 0 .299.1.398.1.498 0 .896-.299 1.095-.796l2.985-7.961h-.597z" vector-effect="non-scaling-stroke"/></g><path d="M33.981 20.592h.398V1.288c-6.169-.099-26.667 0-26.667 0v19.304h26.269z" fill="#1B9A46"/><path d="M56.171 30.543H42.638c-.696 3.881-3.98 6.766-7.861 6.766h-.099-.796v19.702l2.587.1s3.682-.1 8.458-2.189c1.891-.796 3.781-1.891 5.473-2.985 6.965-4.876 11.741-12.439 12.239-21.394h-6.468z" fill="#89BD24"/><path d="M7.811 37.409v19.702h26.17V37.409" fill="#B4CC04"/><path d="M24.329 82.783c-.895 2.588-.099 4.677.697 4.976.497.199 1.194-.398 1.691-1.592 1.194-2.587 1.891-5.971 2.09-9.652-2.09 1.99-3.682 4.079-4.478 6.268z" fill="none"/><path d="M30.499 73.231c-.199-5.871-1.692-12.438-4.18-18.807-3.084-7.662-10.348-20.896-25.075-28.06v1.791c13.831 7.065 20.598 19.602 23.583 26.966 2.587 6.567 3.98 13.433 4.079 19.503-2.985 2.388-5.174 5.075-6.069 7.861-1.095 3.383-.1 6.269 1.592 6.965.099 0 .199.1.398.1.796.099 2.189 0 3.383-2.488 1.493-3.184 2.289-7.164 2.289-11.642 4.278-3.184 10.149-5.871 16.617-7.363l-.298-1.593c-6.269 1.195-11.941 3.682-16.319 6.767zm-3.682 12.936c-.597 1.194-1.194 1.791-1.692 1.592-.895-.398-1.592-2.488-.696-4.976.696-2.089 2.288-4.278 4.577-6.268-.299 3.681-.995 7.065-2.189 9.652zM62.739 61.091c-.896-1.393-2.19-2.189-3.881-2.587-1.692-.398-3.184 0-4.577.896-1.394.895-2.19 2.189-2.588 3.88-.298 1.692 0 3.184.896 4.578.895 1.393 2.189 2.189 3.881 2.587 1.691.298 3.184 0 4.577-.896 1.393-.895 2.189-2.189 2.587-3.881.398-1.691.1-3.184-.895-4.577z" fill="#F39200"/></g></svg>